<mxfile host="app.diagrams.net" agent="Mozilla/5.0 (Windows NT 10.0; Win64; x64) AppleWebKit/537.36 (KHTML, like Gecko) Chrome/130.0.0.0 Safari/537.36" version="24.8.4">
  <diagram name="第 1 页" id="jeIyKUA66Kae41n-4RE5">
    <mxGraphModel dx="3934" dy="1960" grid="1" gridSize="10" guides="1" tooltips="1" connect="1" arrows="1" fold="1" page="1" pageScale="1" pageWidth="827" pageHeight="1169" math="0" shadow="0">
      <root>
        <mxCell id="0" />
        <mxCell id="1" parent="0" />
        <mxCell id="7kllRI4QFta_8gPnx67C-21" style="edgeStyle=orthogonalEdgeStyle;rounded=0;orthogonalLoop=1;jettySize=auto;html=1;exitX=1;exitY=0.5;exitDx=0;exitDy=0;entryX=0;entryY=0.5;entryDx=0;entryDy=0;dashed=1;endArrow=open;endFill=0;" edge="1" parent="1" source="7kllRI4QFta_8gPnx67C-1" target="7kllRI4QFta_8gPnx67C-7">
          <mxGeometry relative="1" as="geometry" />
        </mxCell>
        <mxCell id="7kllRI4QFta_8gPnx67C-22" style="edgeStyle=orthogonalEdgeStyle;rounded=0;orthogonalLoop=1;jettySize=auto;html=1;entryX=0;entryY=0.5;entryDx=0;entryDy=0;dashed=1;endArrow=open;endFill=0;" edge="1" parent="1" source="7kllRI4QFta_8gPnx67C-1" target="7kllRI4QFta_8gPnx67C-9">
          <mxGeometry relative="1" as="geometry" />
        </mxCell>
        <mxCell id="7kllRI4QFta_8gPnx67C-23" style="edgeStyle=orthogonalEdgeStyle;rounded=0;orthogonalLoop=1;jettySize=auto;html=1;entryX=0;entryY=0.5;entryDx=0;entryDy=0;dashed=1;endArrow=open;endFill=0;" edge="1" parent="1" source="7kllRI4QFta_8gPnx67C-1" target="7kllRI4QFta_8gPnx67C-12">
          <mxGeometry relative="1" as="geometry" />
        </mxCell>
        <mxCell id="7kllRI4QFta_8gPnx67C-24" style="edgeStyle=orthogonalEdgeStyle;rounded=0;orthogonalLoop=1;jettySize=auto;html=1;entryX=0;entryY=0.5;entryDx=0;entryDy=0;dashed=1;endArrow=open;endFill=0;" edge="1" parent="1" source="7kllRI4QFta_8gPnx67C-1" target="7kllRI4QFta_8gPnx67C-16">
          <mxGeometry relative="1" as="geometry" />
        </mxCell>
        <mxCell id="7kllRI4QFta_8gPnx67C-1" value="&lt;p style=&quot;margin:0px;margin-top:4px;text-align:center;&quot;&gt;&lt;i&gt;&amp;lt;&amp;lt;&lt;/i&gt;&lt;span style=&quot;background-color: initial; text-align: left;&quot;&gt;&lt;i&gt;Boundary&lt;/i&gt;&lt;/span&gt;&lt;i style=&quot;background-color: initial;&quot;&gt;&amp;gt;&amp;gt;&lt;/i&gt;&lt;/p&gt;&lt;p style=&quot;margin:0px;margin-top:4px;text-align:center;&quot;&gt;&lt;b&gt;LoginPage&lt;/b&gt;&lt;/p&gt;&lt;hr size=&quot;1&quot; style=&quot;border-style:solid;&quot;&gt;&lt;p style=&quot;margin:0px;margin-left:4px;&quot;&gt;+ passwordField: TextBox&lt;br&gt;+ userNameField: TextBox&lt;/p&gt;&lt;p style=&quot;margin: 0px 0px 0px 4px;&quot;&gt;+ login: Button&lt;/p&gt;&lt;p style=&quot;margin: 0px 0px 0px 4px;&quot;&gt;+ loginWithWechat: Button&lt;/p&gt;&lt;p style=&quot;margin: 0px 0px 0px 4px;&quot;&gt;+ signup: Button&lt;/p&gt;&lt;p style=&quot;margin: 0px 0px 0px 4px;&quot;&gt;+ resetPassword: Button&lt;/p&gt;&lt;p style=&quot;margin: 0px 0px 0px 4px;&quot;&gt;+ deleteAccount: Button&lt;/p&gt;&lt;hr size=&quot;1&quot; style=&quot;border-style:solid;&quot;&gt;&lt;p style=&quot;margin:0px;margin-left:4px;&quot;&gt;+ submitLoginInfo()&lt;/p&gt;&lt;p style=&quot;margin:0px;margin-left:4px;&quot;&gt;+ openWechatQRCode()&lt;/p&gt;&lt;p style=&quot;margin:0px;margin-left:4px;&quot;&gt;+ openSignupPage()&lt;/p&gt;&lt;p style=&quot;margin:0px;margin-left:4px;&quot;&gt;+ openResetPasswordPage()&lt;/p&gt;&lt;p style=&quot;margin:0px;margin-left:4px;&quot;&gt;+ openDeleteAccountPage()&lt;/p&gt;&lt;p style=&quot;margin:0px;margin-left:4px;&quot;&gt;&lt;br&gt;&lt;/p&gt;&lt;p style=&quot;margin:0px;margin-left:4px;&quot;&gt;&lt;br&gt;&lt;/p&gt;" style="verticalAlign=top;align=left;overflow=fill;html=1;whiteSpace=wrap;" vertex="1" parent="1">
          <mxGeometry x="60" y="585" width="190" height="245" as="geometry" />
        </mxCell>
        <mxCell id="7kllRI4QFta_8gPnx67C-39" style="rounded=0;orthogonalLoop=1;jettySize=auto;html=1;entryX=0;entryY=0.5;entryDx=0;entryDy=0;elbow=vertical;edgeStyle=orthogonalEdgeStyle;dashed=1;endArrow=open;endFill=0;" edge="1" parent="1" source="7kllRI4QFta_8gPnx67C-2" target="7kllRI4QFta_8gPnx67C-10">
          <mxGeometry relative="1" as="geometry">
            <Array as="points">
              <mxPoint x="155" y="1030" />
              <mxPoint x="395" y="1030" />
              <mxPoint x="395" y="1100" />
            </Array>
          </mxGeometry>
        </mxCell>
        <mxCell id="7kllRI4QFta_8gPnx67C-2" value="&lt;p style=&quot;margin:0px;margin-top:4px;text-align:center;&quot;&gt;&lt;i&gt;&amp;lt;&amp;lt;&lt;/i&gt;&lt;span style=&quot;background-color: initial; text-align: left;&quot;&gt;&lt;i&gt;Boundary&lt;/i&gt;&lt;/span&gt;&lt;i style=&quot;background-color: initial;&quot;&gt;&amp;gt;&amp;gt;&lt;/i&gt;&lt;/p&gt;&lt;p style=&quot;margin:0px;margin-top:4px;text-align:center;&quot;&gt;&lt;b&gt;UserInfoInputPage&lt;/b&gt;&lt;/p&gt;&lt;hr size=&quot;1&quot; style=&quot;border-style:solid;&quot;&gt;&lt;p style=&quot;margin:0px;margin-left:4px;&quot;&gt;+ userinfo: Form&lt;br&gt;+ submit: Button&lt;/p&gt;&lt;hr size=&quot;1&quot; style=&quot;border-style:solid;&quot;&gt;&lt;p style=&quot;margin:0px;margin-left:4px;&quot;&gt;+ submitUserInfo()&lt;/p&gt;&lt;p style=&quot;margin:0px;margin-left:4px;&quot;&gt;&lt;br&gt;&lt;/p&gt;&lt;p style=&quot;margin:0px;margin-left:4px;&quot;&gt;&lt;br&gt;&lt;/p&gt;&lt;p style=&quot;margin:0px;margin-left:4px;&quot;&gt;&lt;br&gt;&lt;/p&gt;" style="verticalAlign=top;align=left;overflow=fill;html=1;whiteSpace=wrap;" vertex="1" parent="1">
          <mxGeometry x="60" y="890" width="190" height="110" as="geometry" />
        </mxCell>
        <mxCell id="7kllRI4QFta_8gPnx67C-42" style="edgeStyle=orthogonalEdgeStyle;rounded=0;orthogonalLoop=1;jettySize=auto;html=1;entryX=0.5;entryY=0;entryDx=0;entryDy=0;dashed=1;endArrow=open;endFill=0;" edge="1" parent="1" source="7kllRI4QFta_8gPnx67C-4" target="7kllRI4QFta_8gPnx67C-11">
          <mxGeometry relative="1" as="geometry">
            <Array as="points">
              <mxPoint x="635" y="1180" />
            </Array>
          </mxGeometry>
        </mxCell>
        <mxCell id="7kllRI4QFta_8gPnx67C-4" value="&lt;p style=&quot;margin:0px;margin-top:4px;text-align:center;&quot;&gt;&lt;i&gt;&amp;lt;&amp;lt;&lt;/i&gt;&lt;span style=&quot;background-color: initial; text-align: left;&quot;&gt;&lt;i&gt;Boundary&lt;/i&gt;&lt;/span&gt;&lt;i style=&quot;background-color: initial;&quot;&gt;&amp;gt;&amp;gt;&lt;/i&gt;&lt;/p&gt;&lt;p style=&quot;margin:0px;margin-top:4px;text-align:center;&quot;&gt;&lt;b&gt;SetPasswordPage&lt;/b&gt;&lt;/p&gt;&lt;hr size=&quot;1&quot; style=&quot;border-style:solid;&quot;&gt;&lt;p style=&quot;margin:0px;margin-left:4px;&quot;&gt;+ passwordField: TextBox&lt;br&gt;+ confirmPasswordField: TextBox&lt;/p&gt;&lt;p style=&quot;margin:0px;margin-left:4px;&quot;&gt;+ submit: Button&lt;/p&gt;&lt;hr size=&quot;1&quot; style=&quot;border-style:solid;&quot;&gt;&lt;p style=&quot;margin:0px;margin-left:4px;&quot;&gt;+ submitUserPassword()&lt;/p&gt;&lt;p style=&quot;margin:0px;margin-left:4px;&quot;&gt;&lt;br&gt;&lt;/p&gt;&lt;p style=&quot;margin:0px;margin-left:4px;&quot;&gt;&lt;br&gt;&lt;/p&gt;&lt;p style=&quot;margin:0px;margin-left:4px;&quot;&gt;&lt;br&gt;&lt;/p&gt;" style="verticalAlign=top;align=left;overflow=fill;html=1;whiteSpace=wrap;" vertex="1" parent="1">
          <mxGeometry x="60" y="1070" width="190" height="130" as="geometry" />
        </mxCell>
        <mxCell id="7kllRI4QFta_8gPnx67C-46" style="edgeStyle=orthogonalEdgeStyle;rounded=0;orthogonalLoop=1;jettySize=auto;html=1;entryX=0;entryY=0.5;entryDx=0;entryDy=0;dashed=1;endArrow=open;endFill=0;" edge="1" parent="1" source="7kllRI4QFta_8gPnx67C-5" target="7kllRI4QFta_8gPnx67C-13">
          <mxGeometry relative="1" as="geometry">
            <Array as="points">
              <mxPoint x="485" y="1380" />
              <mxPoint x="485" y="1590" />
              <mxPoint x="680" y="1590" />
              <mxPoint x="680" y="1635" />
            </Array>
          </mxGeometry>
        </mxCell>
        <mxCell id="7kllRI4QFta_8gPnx67C-5" value="&lt;p style=&quot;margin:0px;margin-top:4px;text-align:center;&quot;&gt;&lt;i&gt;&amp;lt;&amp;lt;&lt;/i&gt;&lt;span style=&quot;background-color: initial; text-align: left;&quot;&gt;&lt;i&gt;Boundary&lt;/i&gt;&lt;/span&gt;&lt;i style=&quot;background-color: initial;&quot;&gt;&amp;gt;&amp;gt;&lt;/i&gt;&lt;/p&gt;&lt;p style=&quot;margin:0px;margin-top:4px;text-align:center;&quot;&gt;&lt;b&gt;ContactInputPage&lt;/b&gt;&lt;/p&gt;&lt;hr size=&quot;1&quot; style=&quot;border-style:solid;&quot;&gt;&lt;p style=&quot;margin:0px;margin-left:4px;&quot;&gt;+ emailField: TextBox&lt;br&gt;+ phoneField: TextBox&lt;/p&gt;&lt;p style=&quot;margin:0px;margin-left:4px;&quot;&gt;+ submit: Button&lt;/p&gt;&lt;hr size=&quot;1&quot; style=&quot;border-style:solid;&quot;&gt;&lt;p style=&quot;margin:0px;margin-left:4px;&quot;&gt;+ submitContactInfo()&lt;/p&gt;&lt;p style=&quot;margin:0px;margin-left:4px;&quot;&gt;&lt;br&gt;&lt;/p&gt;&lt;p style=&quot;margin:0px;margin-left:4px;&quot;&gt;&lt;br&gt;&lt;/p&gt;&lt;p style=&quot;margin:0px;margin-left:4px;&quot;&gt;&lt;br&gt;&lt;/p&gt;" style="verticalAlign=top;align=left;overflow=fill;html=1;whiteSpace=wrap;" vertex="1" parent="1">
          <mxGeometry x="60" y="1260" width="190" height="130" as="geometry" />
        </mxCell>
        <mxCell id="7kllRI4QFta_8gPnx67C-49" style="edgeStyle=orthogonalEdgeStyle;rounded=0;orthogonalLoop=1;jettySize=auto;html=1;entryX=0.5;entryY=0;entryDx=0;entryDy=0;dashed=1;endArrow=open;endFill=0;" edge="1" parent="1" source="7kllRI4QFta_8gPnx67C-6" target="7kllRI4QFta_8gPnx67C-17">
          <mxGeometry relative="1" as="geometry" />
        </mxCell>
        <mxCell id="7kllRI4QFta_8gPnx67C-6" value="&lt;p style=&quot;margin:0px;margin-top:4px;text-align:center;&quot;&gt;&lt;i&gt;&amp;lt;&amp;lt;&lt;/i&gt;&lt;span style=&quot;background-color: initial; text-align: left;&quot;&gt;&lt;i&gt;Boundary&lt;/i&gt;&lt;/span&gt;&lt;i style=&quot;background-color: initial;&quot;&gt;&amp;gt;&amp;gt;&lt;/i&gt;&lt;/p&gt;&lt;p style=&quot;margin:0px;margin-top:4px;text-align:center;&quot;&gt;&lt;b&gt;LoginConfirmPage&lt;/b&gt;&lt;/p&gt;&lt;hr size=&quot;1&quot; style=&quot;border-style:solid;&quot;&gt;&lt;p style=&quot;margin:0px;margin-left:4px;&quot;&gt;+ passwordField: TextBox&lt;br&gt;+ userNameField: TextBox&lt;/p&gt;&lt;p style=&quot;margin: 0px 0px 0px 4px;&quot;&gt;+ login: Button&lt;/p&gt;&lt;p style=&quot;margin: 0px 0px 0px 4px;&quot;&gt;+ loginWithWechat: Button&lt;/p&gt;&lt;hr size=&quot;1&quot; style=&quot;border-style:solid;&quot;&gt;&lt;p style=&quot;margin:0px;margin-left:4px;&quot;&gt;+ submitLoginInfo()&lt;/p&gt;&lt;p style=&quot;margin:0px;margin-left:4px;&quot;&gt;+ openWechatQRCode()&lt;/p&gt;&lt;p style=&quot;margin:0px;margin-left:4px;&quot;&gt;&lt;br&gt;&lt;/p&gt;&lt;p style=&quot;margin:0px;margin-left:4px;&quot;&gt;&lt;br&gt;&lt;/p&gt;" style="verticalAlign=top;align=left;overflow=fill;html=1;whiteSpace=wrap;" vertex="1" parent="1">
          <mxGeometry x="60" y="1450" width="190" height="150" as="geometry" />
        </mxCell>
        <mxCell id="7kllRI4QFta_8gPnx67C-25" style="edgeStyle=orthogonalEdgeStyle;rounded=0;orthogonalLoop=1;jettySize=auto;html=1;exitX=1;exitY=0.5;exitDx=0;exitDy=0;entryX=0;entryY=0.5;entryDx=0;entryDy=0;dashed=1;endArrow=open;endFill=0;" edge="1" parent="1" source="7kllRI4QFta_8gPnx67C-7" target="7kllRI4QFta_8gPnx67C-14">
          <mxGeometry relative="1" as="geometry" />
        </mxCell>
        <mxCell id="7kllRI4QFta_8gPnx67C-26" style="edgeStyle=orthogonalEdgeStyle;rounded=0;orthogonalLoop=1;jettySize=auto;html=1;entryX=0;entryY=0.5;entryDx=0;entryDy=0;dashed=1;endArrow=open;endFill=0;" edge="1" parent="1" source="7kllRI4QFta_8gPnx67C-7" target="7kllRI4QFta_8gPnx67C-15">
          <mxGeometry relative="1" as="geometry" />
        </mxCell>
        <mxCell id="7kllRI4QFta_8gPnx67C-7" value="&lt;p style=&quot;margin: 4px 0px 0px; text-align: center;&quot;&gt;&lt;i&gt;&amp;lt;&amp;lt;&lt;/i&gt;&lt;span style=&quot;background-color: initial; text-align: left;&quot;&gt;&lt;i&gt;Control&lt;/i&gt;&lt;/span&gt;&lt;i style=&quot;background-color: initial;&quot;&gt;&amp;gt;&amp;gt;&lt;/i&gt;&lt;/p&gt;&lt;p style=&quot;margin:0px;margin-top:4px;text-align:center;&quot;&gt;&lt;b&gt;LoginControl&lt;/b&gt;&lt;/p&gt;&lt;hr size=&quot;1&quot; style=&quot;border-style:solid;&quot;&gt;&lt;p style=&quot;margin: 0px 0px 0px 4px; font-size: 1px;&quot;&gt;&lt;br&gt;&lt;/p&gt;&lt;hr size=&quot;1&quot; style=&quot;border-style:solid;&quot;&gt;&lt;p style=&quot;margin:0px;margin-left:4px;&quot;&gt;+ verifyCredentials(userName: String, password: String): Boolean&lt;/p&gt;&lt;p style=&quot;margin:0px;margin-left:4px;&quot;&gt;+ redirectUser(status: Boolean)&lt;/p&gt;&lt;p style=&quot;margin:0px;margin-left:4px;&quot;&gt;&lt;br&gt;&lt;/p&gt;&lt;p style=&quot;margin:0px;margin-left:4px;&quot;&gt;&lt;br&gt;&lt;/p&gt;" style="verticalAlign=top;align=left;overflow=fill;html=1;whiteSpace=wrap;" vertex="1" parent="1">
          <mxGeometry x="300" y="585" width="190" height="115" as="geometry" />
        </mxCell>
        <mxCell id="7kllRI4QFta_8gPnx67C-9" value="&lt;p style=&quot;margin: 4px 0px 0px; text-align: center;&quot;&gt;&lt;i&gt;&amp;lt;&amp;lt;&lt;/i&gt;&lt;span style=&quot;background-color: initial; text-align: left;&quot;&gt;&lt;i&gt;Control&lt;/i&gt;&lt;/span&gt;&lt;i style=&quot;background-color: initial;&quot;&gt;&amp;gt;&amp;gt;&lt;/i&gt;&lt;/p&gt;&lt;p style=&quot;margin:0px;margin-top:4px;text-align:center;&quot;&gt;&lt;b&gt;RegisterControl&lt;/b&gt;&lt;/p&gt;&lt;hr size=&quot;1&quot; style=&quot;border-style:solid;&quot;&gt;&lt;p style=&quot;margin: 0px 0px 0px 4px; font-size: 1px;&quot;&gt;&lt;br&gt;&lt;/p&gt;&lt;hr size=&quot;1&quot; style=&quot;border-style:solid;&quot;&gt;&lt;p style=&quot;margin:0px;margin-left:4px;&quot;&gt;+ openUserInfoInputPage(userName: String): Boolean&lt;/p&gt;&lt;p style=&quot;margin:0px;margin-left:4px;&quot;&gt;&lt;br&gt;&lt;/p&gt;&lt;p style=&quot;margin:0px;margin-left:4px;&quot;&gt;&lt;br&gt;&lt;/p&gt;" style="verticalAlign=top;align=left;overflow=fill;html=1;whiteSpace=wrap;" vertex="1" parent="1">
          <mxGeometry x="300" y="870" width="190" height="115" as="geometry" />
        </mxCell>
        <mxCell id="7kllRI4QFta_8gPnx67C-40" style="edgeStyle=elbowEdgeStyle;rounded=0;orthogonalLoop=1;jettySize=auto;html=1;entryX=1;entryY=0.5;entryDx=0;entryDy=0;elbow=vertical;dashed=1;endArrow=open;endFill=0;" edge="1" parent="1" source="7kllRI4QFta_8gPnx67C-10" target="7kllRI4QFta_8gPnx67C-4">
          <mxGeometry relative="1" as="geometry" />
        </mxCell>
        <mxCell id="7kllRI4QFta_8gPnx67C-41" style="edgeStyle=orthogonalEdgeStyle;rounded=0;orthogonalLoop=1;jettySize=auto;html=1;entryX=0;entryY=0.5;entryDx=0;entryDy=0;dashed=1;endArrow=open;endFill=0;" edge="1" parent="1" source="7kllRI4QFta_8gPnx67C-10" target="7kllRI4QFta_8gPnx67C-19">
          <mxGeometry relative="1" as="geometry" />
        </mxCell>
        <mxCell id="7kllRI4QFta_8gPnx67C-10" value="&lt;p style=&quot;margin: 4px 0px 0px; text-align: center;&quot;&gt;&lt;i&gt;&amp;lt;&amp;lt;&lt;/i&gt;&lt;span style=&quot;background-color: initial; text-align: left;&quot;&gt;&lt;i&gt;Control&lt;/i&gt;&lt;/span&gt;&lt;i style=&quot;background-color: initial;&quot;&gt;&amp;gt;&amp;gt;&lt;/i&gt;&lt;/p&gt;&lt;p style=&quot;margin:0px;margin-top:4px;text-align:center;&quot;&gt;&lt;b&gt;SetUserInfoControl&lt;/b&gt;&lt;/p&gt;&lt;hr size=&quot;1&quot; style=&quot;border-style:solid;&quot;&gt;&lt;p style=&quot;margin: 0px 0px 0px 4px; font-size: 1px;&quot;&gt;&lt;br&gt;&lt;/p&gt;&lt;hr size=&quot;1&quot; style=&quot;border-style:solid;&quot;&gt;&lt;p style=&quot;margin:0px;margin-left:4px;&quot;&gt;+ createSet&lt;span style=&quot;background-color: initial;&quot;&gt;UserInfo(userInfo: UserInfo)&lt;/span&gt;&lt;/p&gt;&lt;p style=&quot;margin:0px;margin-left:4px;&quot;&gt;&lt;br&gt;&lt;/p&gt;&lt;p style=&quot;margin:0px;margin-left:4px;&quot;&gt;&lt;br&gt;&lt;/p&gt;" style="verticalAlign=top;align=left;overflow=fill;html=1;whiteSpace=wrap;" vertex="1" parent="1">
          <mxGeometry x="540" y="1050" width="190" height="100" as="geometry" />
        </mxCell>
        <mxCell id="7kllRI4QFta_8gPnx67C-43" style="edgeStyle=orthogonalEdgeStyle;rounded=0;orthogonalLoop=1;jettySize=auto;html=1;entryX=0.5;entryY=1;entryDx=0;entryDy=0;dashed=1;endArrow=open;endFill=0;" edge="1" parent="1" source="7kllRI4QFta_8gPnx67C-11" target="7kllRI4QFta_8gPnx67C-19">
          <mxGeometry relative="1" as="geometry" />
        </mxCell>
        <mxCell id="7kllRI4QFta_8gPnx67C-11" value="&lt;p style=&quot;margin: 4px 0px 0px; text-align: center;&quot;&gt;&lt;i&gt;&amp;lt;&amp;lt;&lt;/i&gt;&lt;span style=&quot;background-color: initial; text-align: left;&quot;&gt;&lt;i&gt;Control&lt;/i&gt;&lt;/span&gt;&lt;i style=&quot;background-color: initial;&quot;&gt;&amp;gt;&amp;gt;&lt;/i&gt;&lt;/p&gt;&lt;p style=&quot;margin:0px;margin-top:4px;text-align:center;&quot;&gt;&lt;b&gt;SetPasswordControl&lt;/b&gt;&lt;/p&gt;&lt;hr size=&quot;1&quot; style=&quot;border-style:solid;&quot;&gt;&lt;p style=&quot;margin: 0px 0px 0px 4px; font-size: 1px;&quot;&gt;&lt;br&gt;&lt;/p&gt;&lt;hr size=&quot;1&quot; style=&quot;border-style:solid;&quot;&gt;&lt;p style=&quot;margin:0px;margin-left:4px;&quot;&gt;+&amp;nbsp;setPassword(userID: String, newPassword: String): Boolean&lt;/p&gt;&lt;p style=&quot;margin:0px;margin-left:4px;&quot;&gt;&lt;br&gt;&lt;/p&gt;&lt;p style=&quot;margin:0px;margin-left:4px;&quot;&gt;&lt;br&gt;&lt;/p&gt;" style="verticalAlign=top;align=left;overflow=fill;html=1;whiteSpace=wrap;" vertex="1" parent="1">
          <mxGeometry x="540" y="1350" width="190" height="100" as="geometry" />
        </mxCell>
        <mxCell id="7kllRI4QFta_8gPnx67C-44" style="edgeStyle=orthogonalEdgeStyle;rounded=0;orthogonalLoop=1;jettySize=auto;html=1;exitX=0.5;exitY=1;exitDx=0;exitDy=0;entryX=0.5;entryY=1;entryDx=0;entryDy=0;dashed=1;endArrow=open;endFill=0;" edge="1" parent="1" source="7kllRI4QFta_8gPnx67C-12" target="7kllRI4QFta_8gPnx67C-5">
          <mxGeometry relative="1" as="geometry" />
        </mxCell>
        <mxCell id="7kllRI4QFta_8gPnx67C-12" value="&lt;p style=&quot;margin: 4px 0px 0px; text-align: center;&quot;&gt;&lt;i&gt;&amp;lt;&amp;lt;&lt;/i&gt;&lt;span style=&quot;background-color: initial; text-align: left;&quot;&gt;&lt;i&gt;Control&lt;/i&gt;&lt;/span&gt;&lt;i style=&quot;background-color: initial;&quot;&gt;&amp;gt;&amp;gt;&lt;/i&gt;&lt;/p&gt;&lt;p style=&quot;margin:0px;margin-top:4px;text-align:center;&quot;&gt;&lt;b&gt;ResetPasswordControl&lt;/b&gt;&lt;/p&gt;&lt;hr size=&quot;1&quot; style=&quot;border-style:solid;&quot;&gt;&lt;p style=&quot;margin: 0px 0px 0px 4px; font-size: 1px;&quot;&gt;&lt;br&gt;&lt;/p&gt;&lt;hr size=&quot;1&quot; style=&quot;border-style:solid;&quot;&gt;&lt;p style=&quot;margin:0px;margin-left:4px;&quot;&gt;+&amp;nbsp;&lt;span style=&quot;background-color: initial;&quot;&gt;initiatePasswordReset(userEmail: String, userPhone: String)&lt;/span&gt;&lt;/p&gt;&lt;p style=&quot;margin:0px;margin-left:4px;&quot;&gt;&lt;br&gt;&lt;/p&gt;&lt;p style=&quot;margin:0px;margin-left:4px;&quot;&gt;&lt;br&gt;&lt;/p&gt;" style="verticalAlign=top;align=left;overflow=fill;html=1;whiteSpace=wrap;" vertex="1" parent="1">
          <mxGeometry x="300" y="1260" width="190" height="100" as="geometry" />
        </mxCell>
        <mxCell id="7kllRI4QFta_8gPnx67C-47" style="edgeStyle=orthogonalEdgeStyle;rounded=0;orthogonalLoop=1;jettySize=auto;html=1;entryX=1;entryY=0.75;entryDx=0;entryDy=0;dashed=1;endArrow=open;endFill=0;" edge="1" parent="1" source="7kllRI4QFta_8gPnx67C-13" target="7kllRI4QFta_8gPnx67C-4">
          <mxGeometry relative="1" as="geometry">
            <Array as="points">
              <mxPoint x="520" y="1620" />
              <mxPoint x="520" y="1168" />
            </Array>
          </mxGeometry>
        </mxCell>
        <mxCell id="7kllRI4QFta_8gPnx67C-13" value="&lt;p style=&quot;margin: 4px 0px 0px; text-align: center;&quot;&gt;&lt;i&gt;&amp;lt;&amp;lt;&lt;/i&gt;&lt;span style=&quot;background-color: initial; text-align: left;&quot;&gt;&lt;i&gt;Control&lt;/i&gt;&lt;/span&gt;&lt;i style=&quot;background-color: initial;&quot;&gt;&amp;gt;&amp;gt;&lt;/i&gt;&lt;/p&gt;&lt;p style=&quot;margin:0px;margin-top:4px;text-align:center;&quot;&gt;&lt;b&gt;SendResetLinkControl&lt;/b&gt;&lt;/p&gt;&lt;hr size=&quot;1&quot; style=&quot;border-style:solid;&quot;&gt;&lt;p style=&quot;margin: 0px 0px 0px 4px; font-size: 1px;&quot;&gt;&lt;br&gt;&lt;/p&gt;&lt;hr size=&quot;1&quot; style=&quot;border-style:solid;&quot;&gt;&lt;p style=&quot;margin:0px;margin-left:4px;&quot;&gt;+&amp;nbsp;&lt;span style=&quot;background-color: initial;&quot;&gt;sendResetLink&lt;/span&gt;(userEmail: String, userPhone: String)&lt;span style=&quot;background-color: initial;&quot;&gt;: Boolean&lt;/span&gt;&lt;/p&gt;&lt;p style=&quot;margin:0px;margin-left:4px;&quot;&gt;&lt;br&gt;&lt;/p&gt;&lt;p style=&quot;margin:0px;margin-left:4px;&quot;&gt;&lt;br&gt;&lt;/p&gt;" style="verticalAlign=top;align=left;overflow=fill;html=1;whiteSpace=wrap;" vertex="1" parent="1">
          <mxGeometry x="720" y="1580" width="190" height="110" as="geometry" />
        </mxCell>
        <mxCell id="7kllRI4QFta_8gPnx67C-29" style="edgeStyle=orthogonalEdgeStyle;rounded=0;orthogonalLoop=1;jettySize=auto;html=1;entryX=0;entryY=0.5;entryDx=0;entryDy=0;dashed=1;endArrow=open;endFill=0;" edge="1" parent="1" source="7kllRI4QFta_8gPnx67C-14" target="7kllRI4QFta_8gPnx67C-18">
          <mxGeometry relative="1" as="geometry" />
        </mxCell>
        <mxCell id="7kllRI4QFta_8gPnx67C-14" value="&lt;p style=&quot;margin: 4px 0px 0px; text-align: center;&quot;&gt;&lt;i&gt;&amp;lt;&amp;lt;&lt;/i&gt;&lt;span style=&quot;background-color: initial; text-align: left;&quot;&gt;&lt;i&gt;Control&lt;/i&gt;&lt;/span&gt;&lt;i style=&quot;background-color: initial;&quot;&gt;&amp;gt;&amp;gt;&lt;/i&gt;&lt;/p&gt;&lt;p style=&quot;margin:0px;margin-top:4px;text-align:center;&quot;&gt;&lt;b&gt;LoginWithPasswordControl&lt;/b&gt;&lt;/p&gt;&lt;hr size=&quot;1&quot; style=&quot;border-style:solid;&quot;&gt;&lt;p style=&quot;margin: 0px 0px 0px 4px; font-size: 1px;&quot;&gt;&lt;br&gt;&lt;/p&gt;&lt;hr size=&quot;1&quot; style=&quot;border-style:solid;&quot;&gt;&lt;p style=&quot;margin:0px;margin-left:4px;&quot;&gt;+&amp;nbsp;&lt;span style=&quot;background-color: initial;&quot;&gt;authenticate(userName: String, password: String): Boolean&lt;/span&gt;&lt;/p&gt;&lt;p style=&quot;margin:0px;margin-left:4px;&quot;&gt;updateVisitorStatus&lt;span style=&quot;background-color: initial;&quot;&gt;(): Boolean&lt;/span&gt;&lt;span style=&quot;background-color: initial;&quot;&gt;&lt;/span&gt;&lt;/p&gt;&lt;p style=&quot;margin:0px;margin-left:4px;&quot;&gt;&lt;br&gt;&lt;/p&gt;&lt;p style=&quot;margin:0px;margin-left:4px;&quot;&gt;&lt;br&gt;&lt;/p&gt;" style="verticalAlign=top;align=left;overflow=fill;html=1;whiteSpace=wrap;" vertex="1" parent="1">
          <mxGeometry x="540" y="450" width="190" height="110" as="geometry" />
        </mxCell>
        <mxCell id="7kllRI4QFta_8gPnx67C-30" style="edgeStyle=orthogonalEdgeStyle;rounded=0;orthogonalLoop=1;jettySize=auto;html=1;dashed=1;endArrow=open;endFill=0;" edge="1" parent="1" source="7kllRI4QFta_8gPnx67C-15" target="7kllRI4QFta_8gPnx67C-18">
          <mxGeometry relative="1" as="geometry" />
        </mxCell>
        <mxCell id="7kllRI4QFta_8gPnx67C-15" value="&lt;p style=&quot;margin: 4px 0px 0px; text-align: center;&quot;&gt;&lt;i&gt;&amp;lt;&amp;lt;&lt;/i&gt;&lt;span style=&quot;background-color: initial; text-align: left;&quot;&gt;&lt;i&gt;Control&lt;/i&gt;&lt;/span&gt;&lt;i style=&quot;background-color: initial;&quot;&gt;&amp;gt;&amp;gt;&lt;/i&gt;&lt;/p&gt;&lt;p style=&quot;margin:0px;margin-top:4px;text-align:center;&quot;&gt;&lt;b&gt;LoginWithWeChatControl&lt;/b&gt;&lt;/p&gt;&lt;hr size=&quot;1&quot; style=&quot;border-style:solid;&quot;&gt;&lt;p style=&quot;margin: 0px 0px 0px 4px; font-size: 1px;&quot;&gt;&lt;br&gt;&lt;/p&gt;&lt;hr size=&quot;1&quot; style=&quot;border-style:solid;&quot;&gt;&lt;p style=&quot;margin:0px;margin-left:4px;&quot;&gt;+ QRCodeGenerateAndWait&lt;span style=&quot;background-color: initial;&quot;&gt;(): Boolean&lt;/span&gt;&lt;/p&gt;&lt;p style=&quot;margin: 0px 0px 0px 4px;&quot;&gt;+updateVisitorStatus&lt;span style=&quot;background-color: initial;&quot;&gt;(): Boolean&lt;/span&gt;&lt;/p&gt;&lt;p style=&quot;margin: 0px 0px 0px 4px;&quot;&gt;&lt;br&gt;&lt;/p&gt;&lt;p style=&quot;margin:0px;margin-left:4px;&quot;&gt;&lt;br&gt;&lt;/p&gt;&lt;p style=&quot;margin:0px;margin-left:4px;&quot;&gt;&lt;br&gt;&lt;/p&gt;" style="verticalAlign=top;align=left;overflow=fill;html=1;whiteSpace=wrap;" vertex="1" parent="1">
          <mxGeometry x="540" y="770" width="190" height="110" as="geometry" />
        </mxCell>
        <mxCell id="7kllRI4QFta_8gPnx67C-16" value="&lt;p style=&quot;margin: 4px 0px 0px; text-align: center;&quot;&gt;&lt;i&gt;&amp;lt;&amp;lt;&lt;/i&gt;&lt;span style=&quot;background-color: initial; text-align: left;&quot;&gt;&lt;i&gt;Control&lt;/i&gt;&lt;/span&gt;&lt;i style=&quot;background-color: initial;&quot;&gt;&amp;gt;&amp;gt;&lt;/i&gt;&lt;/p&gt;&lt;p style=&quot;margin:0px;margin-top:4px;text-align:center;&quot;&gt;&lt;b&gt;DeleteAccountControl&lt;/b&gt;&lt;/p&gt;&lt;hr size=&quot;1&quot; style=&quot;border-style:solid;&quot;&gt;&lt;p style=&quot;margin: 0px 0px 0px 4px; font-size: 1px;&quot;&gt;&lt;br&gt;&lt;/p&gt;&lt;hr size=&quot;1&quot; style=&quot;border-style:solid;&quot;&gt;&lt;p style=&quot;margin:0px;margin-left:4px;&quot;&gt;+&amp;nbsp;&lt;span style=&quot;background-color: initial;&quot;&gt;openConfirmLoginPage()&lt;/span&gt;&lt;/p&gt;&lt;p style=&quot;margin:0px;margin-left:4px;&quot;&gt;&lt;br&gt;&lt;/p&gt;&lt;p style=&quot;margin:0px;margin-left:4px;&quot;&gt;&lt;br&gt;&lt;/p&gt;" style="verticalAlign=top;align=left;overflow=fill;html=1;whiteSpace=wrap;" vertex="1" parent="1">
          <mxGeometry x="300" y="1600" width="190" height="90" as="geometry" />
        </mxCell>
        <mxCell id="7kllRI4QFta_8gPnx67C-50" style="edgeStyle=orthogonalEdgeStyle;rounded=0;orthogonalLoop=1;jettySize=auto;html=1;exitX=1;exitY=0.5;exitDx=0;exitDy=0;entryX=0.75;entryY=1;entryDx=0;entryDy=0;dashed=1;endArrow=open;endFill=0;" edge="1" parent="1" source="7kllRI4QFta_8gPnx67C-17" target="7kllRI4QFta_8gPnx67C-19">
          <mxGeometry relative="1" as="geometry" />
        </mxCell>
        <mxCell id="7kllRI4QFta_8gPnx67C-17" value="&lt;p style=&quot;margin: 4px 0px 0px; text-align: center;&quot;&gt;&lt;i&gt;&amp;lt;&amp;lt;&lt;/i&gt;&lt;span style=&quot;background-color: initial; text-align: left;&quot;&gt;&lt;i&gt;Control&lt;/i&gt;&lt;/span&gt;&lt;i style=&quot;background-color: initial;&quot;&gt;&amp;gt;&amp;gt;&lt;/i&gt;&lt;/p&gt;&lt;p style=&quot;margin:0px;margin-top:4px;text-align:center;&quot;&gt;&lt;b&gt;DeleteAccountConfirmControl&lt;/b&gt;&lt;/p&gt;&lt;hr size=&quot;1&quot; style=&quot;border-style:solid;&quot;&gt;&lt;p style=&quot;margin: 0px 0px 0px 4px; font-size: 1px;&quot;&gt;&lt;br&gt;&lt;/p&gt;&lt;hr size=&quot;1&quot; style=&quot;border-style:solid;&quot;&gt;&lt;p style=&quot;margin:0px;margin-left:4px;&quot;&gt;+&amp;nbsp;&lt;span style=&quot;background-color: initial;&quot;&gt;deleteAccount()&lt;/span&gt;&lt;/p&gt;&lt;p style=&quot;margin:0px;margin-left:4px;&quot;&gt;&lt;br&gt;&lt;/p&gt;&lt;p style=&quot;margin:0px;margin-left:4px;&quot;&gt;&lt;br&gt;&lt;/p&gt;" style="verticalAlign=top;align=left;overflow=fill;html=1;whiteSpace=wrap;" vertex="1" parent="1">
          <mxGeometry x="540" y="1800" width="190" height="90" as="geometry" />
        </mxCell>
        <mxCell id="7kllRI4QFta_8gPnx67C-18" value="&lt;p style=&quot;margin: 4px 0px 0px; text-align: center;&quot;&gt;&lt;i&gt;&amp;lt;&amp;lt;&lt;/i&gt;&lt;span style=&quot;background-color: initial; text-align: left;&quot;&gt;&lt;i&gt;Entity&lt;/i&gt;&lt;/span&gt;&lt;i style=&quot;background-color: initial;&quot;&gt;&amp;gt;&amp;gt;&lt;/i&gt;&lt;/p&gt;&lt;p style=&quot;margin:0px;margin-top:4px;text-align:center;&quot;&gt;&lt;b&gt;VisitorStatus&lt;/b&gt;&lt;/p&gt;&lt;hr size=&quot;1&quot; style=&quot;border-style:solid;&quot;&gt;&lt;p style=&quot;margin:0px;margin-left:4px;&quot;&gt;+ currentStatus: String&lt;br&gt;+ currentID: String&lt;br&gt;&lt;/p&gt;&lt;hr size=&quot;1&quot; style=&quot;border-style:solid;&quot;&gt;&lt;p style=&quot;margin: 0px 0px 0px 4px; font-size: 1px;&quot;&gt;&lt;br&gt;&lt;/p&gt;&lt;p style=&quot;margin: 0px 0px 0px 4px; font-size: 1px;&quot;&gt;&lt;br&gt;&lt;/p&gt;&lt;p style=&quot;margin: 0px 0px 0px 4px; font-size: 1px;&quot;&gt;&lt;br&gt;&lt;/p&gt;&lt;p style=&quot;margin:0px;margin-left:4px;&quot;&gt;&lt;br&gt;&lt;/p&gt;" style="verticalAlign=top;align=left;overflow=fill;html=1;whiteSpace=wrap;" vertex="1" parent="1">
          <mxGeometry x="880" y="985" width="190" height="105" as="geometry" />
        </mxCell>
        <mxCell id="7kllRI4QFta_8gPnx67C-32" style="edgeStyle=orthogonalEdgeStyle;rounded=0;orthogonalLoop=1;jettySize=auto;html=1;entryX=1;entryY=0.75;entryDx=0;entryDy=0;dashed=1;endArrow=open;endFill=0;" edge="1" parent="1" source="7kllRI4QFta_8gPnx67C-19" target="7kllRI4QFta_8gPnx67C-14">
          <mxGeometry relative="1" as="geometry" />
        </mxCell>
        <mxCell id="7kllRI4QFta_8gPnx67C-33" style="edgeStyle=orthogonalEdgeStyle;rounded=0;orthogonalLoop=1;jettySize=auto;html=1;exitX=0.5;exitY=1;exitDx=0;exitDy=0;entryX=0.5;entryY=0;entryDx=0;entryDy=0;dashed=1;endArrow=open;endFill=0;" edge="1" parent="1" source="7kllRI4QFta_8gPnx67C-19" target="7kllRI4QFta_8gPnx67C-13">
          <mxGeometry relative="1" as="geometry" />
        </mxCell>
        <mxCell id="7kllRI4QFta_8gPnx67C-19" value="&lt;p style=&quot;margin: 4px 0px 0px; text-align: center;&quot;&gt;&lt;i&gt;&amp;lt;&amp;lt;&lt;/i&gt;&lt;span style=&quot;background-color: initial; text-align: left;&quot;&gt;&lt;i&gt;Entity&lt;/i&gt;&lt;/span&gt;&lt;i style=&quot;background-color: initial;&quot;&gt;&amp;gt;&amp;gt;&lt;/i&gt;&lt;/p&gt;&lt;p style=&quot;margin:0px;margin-top:4px;text-align:center;&quot;&gt;&lt;b&gt;UserInfo&lt;/b&gt;&lt;/p&gt;&lt;hr size=&quot;1&quot; style=&quot;border-style:solid;&quot;&gt;&lt;p style=&quot;margin:0px;margin-left:4px;&quot;&gt;+ userID: String&lt;br&gt;+ username: String&lt;br&gt;&lt;/p&gt;&lt;p style=&quot;margin:0px;margin-left:4px;&quot;&gt;+ password: String&lt;/p&gt;&lt;p style=&quot;margin:0px;margin-left:4px;&quot;&gt;+ email: String&lt;/p&gt;&lt;p style=&quot;margin:0px;margin-left:4px;&quot;&gt;+ phone: String&lt;/p&gt;&lt;p style=&quot;margin:0px;margin-left:4px;&quot;&gt;+ otherInfo: Object&lt;/p&gt;&lt;hr size=&quot;1&quot; style=&quot;border-style:solid;&quot;&gt;&lt;p style=&quot;margin: 0px 0px 0px 4px; font-size: 1px;&quot;&gt;&lt;br&gt;&lt;/p&gt;&lt;p style=&quot;margin: 0px 0px 0px 4px; font-size: 1px;&quot;&gt;&lt;br&gt;&lt;/p&gt;&lt;p style=&quot;margin: 0px 0px 0px 4px; font-size: 1px;&quot;&gt;&lt;br&gt;&lt;/p&gt;&lt;p style=&quot;margin:0px;margin-left:4px;&quot;&gt;&lt;br&gt;&lt;/p&gt;" style="verticalAlign=top;align=left;overflow=fill;html=1;whiteSpace=wrap;" vertex="1" parent="1">
          <mxGeometry x="827" y="1177.5" width="190" height="152.5" as="geometry" />
        </mxCell>
        <mxCell id="7kllRI4QFta_8gPnx67C-36" style="edgeStyle=orthogonalEdgeStyle;rounded=0;orthogonalLoop=1;jettySize=auto;html=1;exitX=0.5;exitY=0;exitDx=0;exitDy=0;entryX=0.429;entryY=0.007;entryDx=0;entryDy=0;entryPerimeter=0;dashed=1;endArrow=open;endFill=0;" edge="1" parent="1" source="7kllRI4QFta_8gPnx67C-9" target="7kllRI4QFta_8gPnx67C-2">
          <mxGeometry relative="1" as="geometry" />
        </mxCell>
        <mxCell id="7kllRI4QFta_8gPnx67C-48" style="edgeStyle=orthogonalEdgeStyle;rounded=0;orthogonalLoop=1;jettySize=auto;html=1;entryX=0.451;entryY=1.005;entryDx=0;entryDy=0;entryPerimeter=0;dashed=1;endArrow=open;endFill=0;" edge="1" parent="1" source="7kllRI4QFta_8gPnx67C-16" target="7kllRI4QFta_8gPnx67C-6">
          <mxGeometry relative="1" as="geometry">
            <Array as="points">
              <mxPoint x="146" y="1670" />
            </Array>
          </mxGeometry>
        </mxCell>
        <mxCell id="7kllRI4QFta_8gPnx67C-53" style="edgeStyle=orthogonalEdgeStyle;rounded=0;orthogonalLoop=1;jettySize=auto;html=1;entryX=0;entryY=0.5;entryDx=0;entryDy=0;dashed=1;endArrow=open;endFill=0;" edge="1" parent="1" source="7kllRI4QFta_8gPnx67C-52" target="7kllRI4QFta_8gPnx67C-1">
          <mxGeometry relative="1" as="geometry" />
        </mxCell>
        <mxCell id="7kllRI4QFta_8gPnx67C-52" value="&lt;p style=&quot;margin: 4px 0px 0px; text-align: center;&quot;&gt;&lt;i&gt;&amp;lt;&amp;lt;Entity&lt;/i&gt;&lt;i style=&quot;background-color: initial;&quot;&gt;&amp;gt;&amp;gt;&lt;/i&gt;&lt;/p&gt;&lt;p style=&quot;margin:0px;margin-top:4px;text-align:center;&quot;&gt;&lt;b&gt;User&lt;/b&gt;&lt;/p&gt;&lt;hr size=&quot;1&quot; style=&quot;border-style:solid;&quot;&gt;&lt;p style=&quot;margin:0px;margin-left:4px;&quot;&gt;+ userID: string&lt;/p&gt;&lt;p style=&quot;margin:0px;margin-left:4px;&quot;&gt;+ username: string&lt;/p&gt;&lt;p style=&quot;margin:0px;margin-left:4px;&quot;&gt;- password: string&lt;/p&gt;&lt;p style=&quot;margin:0px;margin-left:4px;&quot;&gt;- accountBalance: double&lt;/p&gt;&lt;p style=&quot;margin:0px;margin-left:4px;&quot;&gt;+ gender: string&lt;/p&gt;&lt;p style=&quot;margin:0px;margin-left:4px;&quot;&gt;+ UserType: string&lt;/p&gt;&lt;p style=&quot;margin:0px;margin-left:4px;&quot;&gt;+ purchasedTutorials: List&amp;lt;Tutorial&amp;gt;&lt;/p&gt;&lt;p style=&quot;margin:0px;margin-left:4px;&quot;&gt;+ progressData: Map&amp;lt;Tutorial, Progress&amp;gt;&lt;/p&gt;&lt;hr size=&quot;1&quot; style=&quot;border-style:solid;&quot;&gt;&lt;p style=&quot;margin:0px;margin-left:4px;&quot;&gt;+ register()&lt;/p&gt;&lt;p style=&quot;margin:0px;margin-left:4px;&quot;&gt;+ login(password: String)&lt;/p&gt;&lt;p style=&quot;margin:0px;margin-left:4px;&quot;&gt;- getUserInfo()&lt;/p&gt;&lt;p style=&quot;margin:0px;margin-left:4px;&quot;&gt;+ logout()&lt;/p&gt;&lt;p style=&quot;margin:0px;margin-left:4px;&quot;&gt;&lt;br&gt;&lt;/p&gt;&lt;p style=&quot;margin:0px;margin-left:4px;&quot;&gt;&lt;br&gt;&lt;/p&gt;&lt;p style=&quot;margin:0px;margin-left:4px;&quot;&gt;&lt;br&gt;&lt;/p&gt;" style="verticalAlign=top;align=left;overflow=fill;html=1;whiteSpace=wrap;" vertex="1" parent="1">
          <mxGeometry x="-330" y="1050" width="190" height="270" as="geometry" />
        </mxCell>
      </root>
    </mxGraphModel>
  </diagram>
</mxfile>
